<svg xmlns="http://www.w3.org/2000/svg" viewBox="0 0 24 24"><path fill="currentColor" d="M12 15a3 3 0 1 0 0-6a3 3 0 0 0 0 6Zm7.94-3.5a6.96 6.96 0 0 0 .05-.5a6.96 6.96 0 0 0-.05-.5l2.11-1.65a.5.5 0 0 0 .12-.64l-2-3.46a.5.5 0 0 0-.6-.22l-2.49 1a7.2 7.2 0 0 0-.87-.5l-.38-2.65a.5.5 0 0 0-.5-.42h-4a.5.5 0 0 0-.5.42l-.38 2.65a7.2 7.2 0 0 0-.87.5l-2.49-1a.5.5 0 0 0-.6.22l-2 3.46a.5.5 0 0 0 .12.64L4.06 10a6.96 6.96 0 0 0-.05.5c0 .17.02.33.05.5l-2.11 1.65a.5.5 0 0 0-.12.64l2 3.46a.5.5 0 0 0 .6.22l2.49-1c.27.19.56.36.87.5l.38 2.65a.5.5 0 0 0 .5.42h4a.5.5 0 0 0 .5-.42l.38-2.65c.31-.14.6-.31.87-.5l2.49 1a.5.5 0 0 0 .6-.22l2-3.46a.5.5 0 0 0-.12-.64L19.94 11.5Z"/></svg>